Coordinates
version=1
nRows=31
nColumns=33
inDegrees=yes

Units are S.I. units (second, meters, Newtons, ...)
Angles are in degrees.

endheader
time	ground_thorax_rot_x	ground_thorax_rot_y	ground_thorax_rot_z	ground_thorax_tx	ground_thorax_ty	ground_thorax_tz	clav_prot_r	clav_elev_r	scapula_abduction_r	scapula_elevation_r	scapula_upward_rot_r	scapula_winging_r	shoulder_elv_r	plane_of_elev_r	axial_rot_r	elbow_flexion_r	pro_sup_r	wrist_flex_r	wrist_dev_r	clav_prot_l	clav_elev_l	scapula_abduction_l	scapula_elevation_l	scapula_upward_rot_l	scapula_winging_l	shoulder_elv_l	plane_of_elev_l	axial_rot_l	elbow_flexion_l	pro_sup_l	wrist_flex_l	wrist_dev_l	
2.8700	35.955010	9.790726	12.634614	-79.824633	767.690112	9.424253	11.122936	36.799296	45.000000	34.058335	-7.094546	-1892.312262	-4802.548126	151.725194	-117.767795	2529.440798	28.655407	17.332798	10.959313	5.504622	-45.000000	-45.000000	45.000000	-23.547180	1526.452589	-3341.753708	138.183373	158.630059	1447.090651	28.071433	7.971577	-18.656861	
2.8800	35.966004	9.850340	12.675734	-80.222097	767.684591	9.324695	10.968139	36.706695	45.000000	34.037619	-6.983942	-1892.442090	-4802.562702	151.722302	-117.540536	2529.452833	28.773192	17.347336	10.908539	5.388774	-45.000000	-45.000000	45.000000	-23.571543	1526.559596	-3341.751933	138.175101	158.530789	1447.107118	28.219121	7.985053	-18.596842	
2.8900	35.958679	9.927466	12.743737	-80.630866	767.679409	9.224754	10.788481	36.561151	45.000000	34.001588	-6.890418	-1892.588031	-4802.589359	151.718580	-117.334238	2529.437240	28.880680	17.374871	10.856954	5.215244	-45.000000	-45.000000	45.000000	-23.629360	1526.707784	-3341.751471	138.130477	158.438919	1447.124616	28.368175	8.038067	-18.452115	
2.9000	35.976976	9.982919	12.767776	-81.061504	767.673285	9.122733	10.697872	36.514919	45.000000	34.004954	-6.838507	-1892.680003	-4802.595505	151.714937	-117.212019	2529.442169	28.952701	17.390473	10.824034	5.141448	-45.000000	-45.000000	45.000000	-23.660332	1526.806220	-3341.748435	138.114016	158.376212	1447.142180	28.482603	8.053769	-18.400296	
2.9100	36.003290	10.033090	12.775181	-81.509924	767.665637	9.016099	10.649916	36.510366	45.000000	34.025906	-6.830332	-1892.738326	-4802.584441	151.711066	-117.146490	2529.457612	28.997466	17.399723	10.805872	5.108160	-45.000000	-44.999999	45.000000	-23.688769	1526.874116	-3341.739129	138.119258	158.337564	1447.161475	28.571154	8.053450	-18.395773	
2.9200	36.033798	10.083035	12.770796	-81.972664	767.655759	8.901535	10.640606	36.534703	45.000000	34.060969	-6.851378	-1892.777411	-4802.572310	151.708037	-117.144467	2529.465994	29.016815	17.411543	10.797565	5.108684	-45.000000	-44.999999	45.000000	-23.724205	1526.939684	-3341.727250	138.115529	158.319396	1447.179556	28.638315	8.052361	-18.400602	
2.9300	36.065709	10.138744	12.760609	-82.441724	767.643403	8.775622	10.649042	36.574014	45.000000	34.105125	-6.900665	-1892.801552	-4802.552419	151.706190	-117.183239	2529.475683	29.020937	17.418681	10.798826	5.126492	-45.000000	-44.999998	45.000000	-23.765205	1526.986020	-3341.708849	138.129158	158.320023	1447.197939	28.685245	8.041517	-18.436616	
2.9400	36.094232	10.204103	12.751288	-82.911659	767.630039	8.636403	10.660657	36.606305	45.000000	34.150576	-6.949325	-1892.833019	-4802.545360	151.704012	-117.258798	2529.464157	29.018508	17.435193	10.800137	5.143285	-45.000000	-44.999996	45.000000	-23.822352	1527.058281	-3341.689866	138.113134	158.330074	1447.214571	28.722200	8.044551	-18.443611	
2.9500	36.126987	10.276803	12.737793	-83.380891	767.618626	8.483891	10.672626	36.645373	45.000000	34.202875	-7.000893	-1892.861075	-4802.533480	151.701953	-117.354091	2529.453510	29.016736	17.446504	10.805345	5.162860	-45.000000	-44.999994	45.000000	-23.879541	1527.113017	-3341.666890	138.119608	158.352879	1447.234116	28.744042	8.038764	-18.475815	
2.9600	36.162670	10.349711	12.715698	-83.855910	767.614586	8.321059	10.685821	36.689981	45.000000	34.259098	-7.038401	-1892.892962	-4802.528841	151.695572	-117.469754	2529.427596	29.017081	17.466475	10.807495	5.184354	-45.000000	-44.999988	45.000000	-23.942305	1527.193553	-3341.643760	138.095434	158.381300	1447.252921	28.755615	8.043055	-18.483655	
2.9700	36.203757	10.427015	12.687737	-84.345922	767.623952	8.152160	10.695895	36.743183	45.000000	34.323674	-7.075861	-1892.923274	-4802.515996	151.689641	-117.587798	2529.407394	29.020277	17.478515	10.810867	5.200494	-45.000000	-44.999979	45.000000	-23.999452	1527.251926	-3341.619556	138.098915	158.420427	1447.276345	28.750185	8.040167	-18.512770	
2.9800	36.247225	10.496893	12.647177	-84.861532	767.652533	7.981417	10.706898	36.808628	45.000000	34.391995	-7.104606	-1892.952972	-4802.502005	151.677540	-117.704746	2529.382634	29.021657	17.497875	10.809319	5.220556	-45.000000	-44.999963	45.000000	-24.058065	1527.336625	-3341.595188	138.069322	158.461269	1447.299683	28.729597	8.044155	-18.522976	
2.9900	36.294305	10.571289	12.604990	-85.409688	767.704341	7.811485	10.715027	36.880417	45.000000	34.469282	-7.139864	-1892.981898	-4802.476433	151.669012	-117.810087	2529.371351	29.017727	17.508604	10.808776	5.232473	-45.000000	-44.999933	45.000000	-24.112213	1527.391803	-3341.569294	138.076934	158.509227	1447.330976	28.687346	8.042431	-18.552831	
3.0000	36.341048	10.635461	12.551281	-85.994633	767.781984	7.643597	10.725006	36.964803	45.000000	34.549945	-7.173868	-1893.008838	-4802.448288	151.654069	-117.907634	2529.360333	29.002495	17.527313	10.802865	5.252815	-45.000000	-44.999880	45.000000	-24.169872	1527.479617	-3341.540971	138.045095	158.554884	1447.360572	28.624558	8.044786	-18.566287	
3.0100	36.389942	10.710222	12.501099	-86.616893	767.886656	7.477697	10.734548	37.049756	45.000000	34.642928	-7.215164	-1893.040673	-4802.414709	151.646652	-117.999418	2529.362048	28.973683	17.538828	10.798435	5.264790	-45.000000	-44.999786	45.000000	-24.225388	1527.534425	-3341.509975	138.056212	158.604470	1447.399972	28.536652	8.043604	-18.595927	
3.0200	36.438248	10.775496	12.441788	-87.276019	768.019305	7.313527	10.746290	37.145688	45.000000	34.740387	-7.254823	-1893.070827	-4802.381537	151.631606	-118.092535	2529.364761	28.928396	17.560265	10.788883	5.287896	-45.000000	-44.999616	45.000000	-24.284979	1527.628804	-3341.475306	138.024384	158.650047	1447.437258	28.424856	8.043626	-18.610877	
3.0300	36.491684	10.851983	12.387672	-87.971925	768.181346	7.151403	10.757720	37.240072	45.000000	34.853090	-7.299472	-1893.104697	-4802.343406	151.621989	-118.188503	2529.382328	28.868248	17.577442	10.783131	5.300194	-45.000000	-44.999313	45.000000	-24.344346	1527.681371	-3341.435354	138.046923	158.696994	1447.488166	28.287726	8.041621	-18.642343	
3.0400	36.543269	10.920577	12.330153	-88.706075	768.375218	6.992535	10.771539	37.340833	45.000000	34.968984	-7.344269	-1893.134894	-4802.305065	151.604648	-118.291977	2529.404094	28.792759	17.606067	10.773325	5.323570	-45.000000	-44.998769	45.000000	-24.409986	1527.773165	-3341.390880	138.032625	158.740183	1447.538793	28.126770	8.038689	-18.661471	
3.0500	36.600075	10.993011	12.269803	-89.480590	768.603889	6.838447	10.784869	37.443662	45.000000	35.097860	-7.389543	-1893.170221	-4802.266777	151.583215	-118.402289	2529.435935	28.705643	17.632773	10.766252	5.339716	-45.000000	-44.997795	45.000000	-24.474465	1527.839178	-3341.339770	138.049043	158.779895	1447.599321	27.944289	8.033168	-18.692389	
3.0600	36.653113	11.054580	12.202548	-90.297278	768.870296	6.690164	10.797080	37.551167	45.000000	35.223721	-7.427066	-1893.201564	-4802.225497	151.555233	-118.518148	2529.469278	28.608515	17.671827	10.755632	5.365382	-45.000000	-44.996051	45.000000	-24.537100	1527.951519	-3341.287165	138.021595	158.813137	1447.657529	27.744482	8.024097	-18.711050	
3.0700	36.709364	11.114380	12.124319	-91.157674	769.176743	6.547698	10.805457	37.655761	45.000000	35.354420	-7.456794	-1893.242785	-4802.185096	151.517138	-118.636182	2529.504006	28.506048	17.708195	10.746612	5.383712	-45.000000	-44.992924	45.000000	-24.592909	1528.048368	-3341.226333	138.007808	158.834710	1447.722514	27.532593	8.012942	-18.738735	
3.0800	36.758733	11.172421	12.046520	-92.062894	769.524535	6.409717	10.808858	37.755689	44.999999	35.478794	-7.482543	-1893.277400	-4802.134497	151.484917	-118.752302	2529.541220	28.399436	17.755056	10.736755	5.405349	-45.000000	-44.987330	45.000000	-24.641799	1528.174169	-3341.164249	137.973426	158.847950	1447.788480	27.311155	7.997923	-18.758711	
3.0900	36.812029	11.228997	11.955893	-93.014420	769.913753	6.273813	10.811319	37.856825	44.999999	35.610330	-7.505936	-1893.323467	-4802.091994	151.439498	-118.870689	2529.573535	28.291342	17.795652	10.725058	5.421126	-45.000000	-44.977288	45.000000	-24.690254	1528.289093	-3341.092027	137.938499	158.844999	1447.856811	27.084553	7.981000	-18.785006	
3.1000	36.863286	11.294362	11.879173	-94.014090	770.343607	6.136971	10.811441	37.954959	44.999997	35.744604	-7.538217	-1893.354681	-4802.033283	151.412053	-118.986618	2529.617291	28.181571	17.844586	10.714281	5.432718	-45.000000	-44.959361	45.000000	-24.740500	1528.405656	-3341.020835	137.916264	158.840186	1447.931950	26.852599	7.960781	-18.809382	
3.1100	36.923022	11.359564	11.798050	-95.065068	770.812876	5.996420	10.819443	38.056209	44.999995	35.892600	-7.584345	-1893.398783	-4801.987565	151.367887	-119.110873	2529.659502	28.070177	17.882524	10.696848	5.438783	-45.000000	-44.927081	45.000000	-24.815464	1528.507886	-3340.937931	137.891529	158.824190	1448.012854	26.617327	7.939721	-18.840534	
3.1200	36.982996	11.441090	11.750593	-96.171007	771.320696	5.850268	10.830270	38.154949	44.999991	36.050883	-7.662573	-1893.417721	-4801.920466	151.351286	-119.233847	2529.724048	27.956160	17.928145	10.681851	5.437592	-45.000000	-44.871753	45.000000	-24.912454	1528.595221	-3340.860054	137.901372	158.820108	1448.105677	26.376002	7.915150	-18.873104	
3.1300	37.053898	11.524363	11.715243	-97.336362	771.866962	5.697984	10.858167	38.267098	44.999985	36.232229	-7.776165	-1893.440812	-4801.872564	151.318136	-119.371777	2529.788056	27.837803	17.962495	10.656736	5.437326	-45.000000	-44.783013	45.000000	-25.060282	1528.682545	-3340.778271	137.891886	158.818771	1448.201668	26.129130	7.886432	-18.906928	
3.1400	37.131897	11.622794	11.722514	-98.564515	772.452700	5.540365	10.898332	38.382416	44.999973	36.434001	-7.933764	-1893.437786	-4801.812234	151.303468	-119.517607	2529.871372	27.714650	18.000658	10.630454	5.428525	-45.000000	-44.649957	45.000000	-25.258628	1528.751478	-3340.701530	137.909570	158.836920	1448.308987	25.876209	7.854398	-18.942624	
3.1500	37.221704	11.720263	11.743296	-99.858094	773.079767	5.379306	10.962030	38.505693	44.999951	36.656857	-8.132055	-1893.443834	-4801.774396	151.261727	-119.683225	2529.949532	27.586936	18.025286	10.589954	5.418256	-45.000000	-44.468999	45.000000	-25.531174	1528.818864	-3340.610596	137.894380	158.857832	1448.418105	25.620244	7.820188	-18.979598	
3.1600	37.317504	11.825705	11.793526	-101.217583	773.750545	5.217265	11.037278	38.629321	44.999912	36.893277	-8.368933	-1893.430448	-4801.724195	151.225795	-119.854118	2530.040560	27.458042	18.053891	10.546812	5.397734	-45.000000	-44.244225	45.000000	-25.855471	1528.868693	-3340.512888	137.889407	158.890985	1448.531725	25.364348	7.784292	-19.018843	
3.1700	37.422056	11.927630	11.845738	-102.642620	774.467268	5.056808	11.129634	38.759338	44.999843	37.142513	-8.632749	-1893.424621	-4801.685324	151.165577	-120.036263	2530.126996	27.331146	18.075387	10.491559	5.373698	-45.000000	-43.987331	45.000000	-26.233845	1528.916968	-3340.395437	137.853300	158.921221	1448.644344	25.112881	7.745750	-19.059205	
